<svg width="42" height="42" viewBox="0 0 42 42" fill="none" xmlns="http://www.w3.org/2000/svg">
<path fill-rule="evenodd" clip-rule="evenodd" d="M21 42C32.598 42 42 32.598 42 21C42 9.40201 32.598 0 21 0C9.40198 0 0 9.40201 0 21C0 32.598 9.40198 42 21 42ZM9 11C9 10.4477 9.44775 10 10 10H14C14.4767 10 14.887 10.3364 14.9806 10.8037L15.8204 15H32C32.298 15 32.5806 15.1329 32.7705 15.3625C32.9604 15.5922 33.0381 15.8946 32.9823 16.1873L31.3823 24.5773L31.3809 24.5848C31.2437 25.2754 30.8679 25.8958 30.3196 26.3372C29.7738 26.7766 29.0917 27.011 28.3914 27H18.6886C17.9884 27.011 17.3062 26.7766 16.7605 26.3372C16.2123 25.8959 15.8367 25.2759 15.6992 24.5848L14.0288 16.2392C14.022 16.2116 14.0164 16.1835 14.012 16.1551L13.1803 12H10C9.44775 12 9 11.5523 9 11ZM16.2207 17L17.6605 24.1938L17.6609 24.1952C17.7065 24.4254 17.8318 24.6322 18.0146 24.7793C18.1974 24.9265 18.4261 25.0047 18.6609 25.0002L18.6801 25H28.4L28.4192 25.0002C28.6538 25.0047 28.8826 24.9265 29.0654 24.7793C29.2473 24.6328 29.3723 24.4273 29.4185 24.1984L30.7913 17H16.2207ZM18 29C16.8954 29 16 29.8954 16 31C16 32.1046 16.8954 33 18 33C19.1046 33 20 32.1046 20 31C20 29.8954 19.1046 29 18 29ZM29 29C27.8954 29 27 29.8954 27 31C27 32.1046 27.8954 33 29 33C30.1046 33 31 32.1046 31 31C31 29.8954 30.1046 29 29 29Z" fill="#FF0000"/>
</svg>
