<svg width="42" height="42" viewBox="0 0 42 42" fill="none" xmlns="http://www.w3.org/2000/svg">
<path fill-rule="evenodd" clip-rule="evenodd" d="M21 42C32.598 42 42 32.598 42 21C42 9.40201 32.598 0 21 0C9.40198 0 0 9.40201 0 21C0 32.598 9.40198 42 21 42ZM28.5066 13.4189C29.1741 13.6955 29.7805 14.1008 30.2913 14.6118C30.8022 15.1226 31.2076 15.729 31.4843 16.3965C31.7607 17.0639 31.9031 17.7793 31.9031 18.5018C31.9031 19.2243 31.7607 19.9397 31.4843 20.6072C31.2076 21.2746 30.8022 21.8811 30.2913 22.3918L29.2313 23.4518L21.4513 31.2318L13.6713 23.4518L12.6113 22.3918C11.5796 21.3601 11 19.9608 11 18.5018C11 17.0428 11.5796 15.6435 12.6113 14.6118C13.6429 13.5801 15.0422 13.0005 16.5013 13.0005C17.9603 13.0005 19.3596 13.5801 20.3912 14.6118L21.4513 15.6718L22.5112 14.6118C23.0221 14.1008 23.6284 13.6955 24.2959 13.4189C24.9634 13.1423 25.6788 13 26.4012 13C27.1238 13 27.8392 13.1423 28.5066 13.4189Z" fill="#FF0000"/>
</svg>
